# xmcd CD database file
#
# Track frame offsets:
#	150
#	11950
#	27212
#	44497
#	60517
#	72530
#	84447
#	97590
#	109580
#	119975
#	132075
#	145652
#
# Disc length: 2065 seconds
#
# Revision: 0
# Processed by: cddbd v1.5.2PL0 Copyright (c) Steve Scherf et al.
# Submitted via: CDex 1.70beta2
#
DISCID=a2080f0c
DTITLE=Walter Bishop Jr. Group - Summertime
DYEAR=1900
DGENRE=Jazz
TTITLE0=Things Ain't What They Used To Be
TTITLE1=I Thought About You
TTITLE2=Tell It The Way It Is
TTITLE3=Falling In Love With Love
TTITLE4=Dottie's Theme
TTITLE5=Dinkum
TTITLE6=Summertime
TTITLE7=Easy To Love
TTITLE8=33rd Off 3rd
TTITLE9=Love For Sale
TTITLE10=Our Romance Is Over
TTITLE11=Getting Off The Ground
EXTD=
EXTT0=
EXTT1=
EXTT2=
EXTT3=
EXTT4=
EXTT5=
EXTT6=
EXTT7=
EXTT8=
EXTT9=
EXTT10=
EXTT11=
PLAYORDER=
